<?xml version="1.0" encoding="UTF-8"?>
<svg version="1.1" xmlns="http://www.w3.org/2000/svg" width="162" height="145">
<path d="M0 0 C53.46 0 106.92 0 162 0 C162 47.85 162 95.7 162 145 C108.54 145 55.08 145 0 145 C0 97.15 0 49.3 0 0 Z " fill="#B34DB2" transform="translate(0,0)"/>
<path d="M0 0 C3.0625 0.3125 3.0625 0.3125 4.6574707 1.45117188 C6.57562343 3.99226595 6.96213972 6.29412007 7.60546875 9.40625 C7.87552734 10.60121094 8.14558594 11.79617187 8.42382812 13.02734375 C8.97373627 15.54678107 9.50507381 18.07034489 10.01757812 20.59765625 C11.19710322 26.80086556 11.19710322 26.80086556 14.74169922 31.73632812 C16.86102644 32.56643776 18.81447989 32.9645198 21.0625 33.3125 C22.66407723 33.729655 24.26300758 34.15708196 25.859375 34.59375 C28.35269381 35.21411617 30.84860331 35.82112252 33.34765625 36.41796875 C41.30964317 38.41164012 41.30964317 38.41164012 44.0625 41.3125 C44.5625 44.3125 44.5625 44.3125 44.0625 47.3125 C41.04263741 50.21452081 38.12897016 50.97235338 34.08984375 51.8203125 C32.36991211 52.21863281 32.36991211 52.21863281 30.61523438 52.625 C28.20626265 53.16640045 25.79198152 53.68469818 23.37304688 54.1796875 C17.27603212 55.40353056 17.27603212 55.40353056 12.69189453 59.19458008 C11.88532275 61.56732849 11.45527377 63.83857574 11.0625 66.3125 C10.5828243 68.04611681 10.08228975 69.77407905 9.5625 71.49609375 C8.80242085 74.15043267 8.04722943 76.80531603 7.3125 79.46679688 C7.065 80.32208984 6.8175 81.17738281 6.5625 82.05859375 C6.3459375 82.82872803 6.129375 83.5988623 5.90625 84.39233398 C5.0625 86.3125 5.0625 86.3125 2.0625 88.3125 C-0.9375 88.375 -0.9375 88.375 -3.9375 87.3125 C-6.07485856 83.28503515 -7.22654242 79.35321707 -8.26171875 74.921875 C-8.48666016 73.96539062 -8.71160156 73.00890625 -8.94335938 72.0234375 C-9.40024744 70.03878904 -9.83495741 68.04891249 -10.24804688 66.0546875 C-11.3519211 60.94215309 -11.3519211 60.94215309 -14.56567383 57.0625 C-16.68444622 56.2238694 -18.70034057 55.74438588 -20.9375 55.3125 C-22.62134989 54.88642765 -24.30493389 54.45930346 -25.98828125 54.03125 C-28.6409472 53.40919092 -31.29623837 52.80215062 -33.95507812 52.20703125 C-34.81166016 52.00464844 -35.66824219 51.80226562 -36.55078125 51.59375 C-37.70767456 51.33174805 -37.70767456 51.33174805 -38.88793945 51.06445312 C-41.26051721 50.19398981 -42.39177605 49.30136974 -43.9375 47.3125 C-44.57974793 42.17451653 -44.57974793 42.17451653 -42.75170898 39.72094727 C-40.41765585 37.90892297 -38.41097621 37.44217739 -35.53515625 36.77734375 C-34.48005859 36.52533203 -33.42496094 36.27332031 -32.33789062 36.01367188 C-31.23638672 35.76166016 -30.13488281 35.50964844 -29 35.25 C-26.82321851 34.74255299 -24.64739031 34.23099479 -22.47265625 33.71484375 C-21.507229 33.49304443 -20.54180176 33.27124512 -19.54711914 33.04272461 C-17.05717235 32.34598676 -15.07781757 31.76430071 -12.9375 30.3125 C-11.98355412 28.3553375 -11.98355412 28.3553375 -11.55859375 26.0234375 C-11.35943359 25.16363281 -11.16027344 24.30382812 -10.95507812 23.41796875 C-10.76365234 22.51691406 -10.57222656 21.61585937 -10.375 20.6875 C-5.9126476 0.62900506 -5.9126476 0.62900506 0 0 Z " fill="#FCF9FC" transform="translate(79.9375,30.6875)"/>
<path d="M0 0 C0.66 0 1.32 0 2 0 C2.31453125 1.18078125 2.6290625 2.3615625 2.953125 3.578125 C3.3847174 5.13561061 3.81704796 6.6928918 4.25 8.25 C4.45496094 9.02730469 4.65992188 9.80460937 4.87109375 10.60546875 C6.57434994 16.68733248 6.57434994 16.68733248 11 21 C14.19709129 22.16379474 17.44044012 22.97271784 20.75 23.75 C21.63816406 23.97042969 22.52632812 24.19085938 23.44140625 24.41796875 C25.62484541 24.95795908 27.81060936 25.48477443 30 26 C30 26.66 30 27.32 30 28 C29.44014404 28.14622803 28.88028809 28.29245605 28.3034668 28.44311523 C25.76453929 29.10687509 23.22601658 29.77217038 20.6875 30.4375 C19.80642578 30.66759766 18.92535156 30.89769531 18.01757812 31.13476562 C17.17001953 31.35712891 16.32246094 31.57949219 15.44921875 31.80859375 C14.66893311 32.01282959 13.88864746 32.21706543 13.0847168 32.42749023 C11.37394724 32.89730574 9.6830666 33.4389778 8 34 C4.55920132 40.56300489 3.56307101 48.82761031 2 56 C1.34 56 0.68 56 0 56 C-0.24234375 54.83082031 -0.4846875 53.66164062 -0.734375 52.45703125 C-1.07219355 50.90869622 -1.41077563 49.36052764 -1.75 47.8125 C-1.90726563 47.04357422 -2.06453125 46.27464844 -2.2265625 45.48242188 C-3.28458549 40.74166502 -4.47419152 37.5392915 -8 34 C-14.1864169 30.57772682 -21.13374352 29.45585288 -28 28 C-28 27.34 -28 26.68 -28 26 C-27.44538086 25.86948242 -26.89076172 25.73896484 -26.31933594 25.60449219 C-23.79244774 25.00104043 -21.27144546 24.3757869 -18.75 23.75 C-17.87730469 23.54503906 -17.00460938 23.34007813 -16.10546875 23.12890625 C-9.60383862 21.57826436 -9.60383862 21.57826436 -5 17 C-3.86078319 14.13514026 -3.03546979 11.22885712 -2.25 8.25 C-2.02957031 7.45722656 -1.80914062 6.66445313 -1.58203125 5.84765625 C-1.04278912 3.90169554 -0.51976609 1.95125303 0 0 Z " fill="#B553B4" transform="translate(79,48)"/>
<path d="M0 0 C4.55555556 0.55555556 4.55555556 0.55555556 6 2 C6.04080783 3.99958364 6.04254356 6.00045254 6 8 C7.423125 7.938125 7.423125 7.938125 8.875 7.875 C12 8 12 8 14 10 C13.44444444 14.55555556 13.44444444 14.55555556 12 16 C10.00041636 16.04080783 7.99954746 16.04254356 6 16 C6.04125 16.94875 6.0825 17.8975 6.125 18.875 C6 22 6 22 4 24 C-0.55555556 23.44444444 -0.55555556 23.44444444 -2 22 C-2.04080783 20.00041636 -2.04254356 17.99954746 -2 16 C-2.94875 16.04125 -3.8975 16.0825 -4.875 16.125 C-8 16 -8 16 -10 14 C-9.44444444 9.44444444 -9.44444444 9.44444444 -8 8 C-6.00041636 7.95919217 -3.99954746 7.95745644 -2 8 C-2.04125 7.05125 -2.0825 6.1025 -2.125 5.125 C-2 2 -2 2 0 0 Z " fill="#FDFBFD" transform="translate(110,35)"/>
<path d="M0 0 C1.65 0.33 3.3 0.66 5 1 C5.33 1.99 5.66 2.98 6 4 C8.00016466 5.20882096 8.00016466 5.20882096 10 6 C9.67 7.65 9.34 9.3 9 11 C8.01 11.33 7.02 11.66 6 12 C4.79117904 14.00016466 4.79117904 14.00016466 4 16 C2.35 15.67 0.7 15.34 -1 15 C-1.33 14.01 -1.66 13.02 -2 12 C-4.00016466 10.79117904 -4.00016466 10.79117904 -6 10 C-5.67 8.35 -5.34 6.7 -5 5 C-4.01 4.67 -3.02 4.34 -2 4 C-0.79117904 1.99983534 -0.79117904 1.99983534 0 0 Z " fill="#FCF8FC" transform="translate(46,91)"/>
</svg>
